{"glyphs":{":":{"x_min":0,"x_max":367,"ha":367,"o":"m 216 523 q 246 523 268 501 q 289 480 289 450 q 289 419 268 398 q 246 376 216 376 q 186 376 164 398 q 143 419 143 450 q 143 480 164 501 q 186 523 216 523 z m 173 137 q 203 137 225 116 q 246 94 246 64 q 246 34 225 12 q 203 -10 173 -10 q 143 -10 121 12 q 100 34 100 64 q 100 94 121 116 q 143 137 173 137 z"},"$":{"x_min":0,"x_max":481,"ha":481,"o":"m 252 -11 l 239 -88 l 163 -88 l 176 -9 q 102 0 57 23 l 86 117 q 107 100 149 88 q 190 77 229 77 q 287 77 322 105 q 357 133 357 183 q 357 225 331 256 q 304 288 240 335 q 175 381 146 421 q 117 461 117 521 q 117 605 165 659 q 213 713 295 725 l 312 823 l 389 823 l 372 727 q 459 721 483 708 l 455 614 q 441 625 409 635 q 377 645 349 645 q 287 645 250 616 q 214 588 214 535 q 214 512 226 491 q 237 470 257 453 q 276 437 337 391 q 398 346 427 299 q 455 251 455 189 q 455 102 402 50 q 348 -1 252 -11 z"},"?":{"x_min":0,"x_max":367,"ha":367,"o":"m 167 209 l 120 209 q 119 215 116 232 q 113 249 113 258 q 113 322 166 382 l 260 474 q 286 499 301 528 q 316 557 316 586 q 316 653 235 653 q 177 653 140 624 l 109 688 q 154 728 263 728 q 330 728 370 691 q 410 655 410 590 q 410 503 346 436 l 232 336 q 200 308 183 276 q 166 244 167 209 z m 141 128 q 169 128 189 108 q 210 87 210 59 q 210 31 189 10 q 169 -10 141 -10 q 112 -10 92 10 q 71 31 71 59 q 71 87 92 108 q 112 128 141 128 z"},"<":{"x_min":0,"x_max":524,"ha":524,"o":"m 434 106 l 73 281 l 73 341 l 434 514 l 434 436 l 155 311 l 434 185 z"},"'":{"x_min":0,"x_max":160,"ha":160,"o":"m 159 530 l 94 530 l 115 716 l 205 716 z"},"=":{"x_min":0,"x_max":524,"ha":524,"o":"m 469 428 l 469 359 l 60 359 l 60 428 z m 469 262 l 469 193 l 60 193 l 60 262 z"},"a":{"x_min":0,"x_max":525,"ha":525,"o":"m 514 490 l 450 186 q 446 167 446 141 q 446 65 470 0 l 375 0 q 367 16 358 53 q 335 25 290 8 q 245 -10 194 -10 q 117 -10 73 36 q 30 82 30 167 q 30 311 115 422 q 200 533 333 533 q 459 533 514 490 z m 411 436 q 398 457 322 457 q 245 457 187 375 q 128 293 128 170 q 128 66 221 66 q 269 66 312 116 q 354 166 371 244 z"},"L":{"x_min":0,"x_max":506,"ha":506,"o":"m 41 0 l 167 715 l 267 715 l 156 88 l 479 88 l 464 0 z"},"3":{"x_min":0,"x_max":524,"ha":524,"o":"m 23 52 l 67 133 q 86 108 122 91 q 157 73 192 73 q 264 73 309 117 q 354 161 354 233 q 354 342 223 342 l 236 421 q 387 421 387 553 q 387 597 361 621 q 334 645 288 645 q 231 645 191 611 l 147 669 q 203 728 310 728 q 390 728 441 685 q 493 641 493 566 q 493 505 452 454 q 412 403 350 383 q 456 347 456 237 q 456 111 388 51 q 320 -10 176 -10 q 78 -10 23 52 z"},";":{"x_min":0,"x_max":367,"ha":367,"o":"m 216 523 q 246 523 268 501 q 289 480 289 450 q 289 419 268 398 q 246 376 216 376 q 186 376 164 398 q 143 419 143 450 q 143 480 164 501 q 186 523 216 523 z m 89 -164 l 67 -126 q 162 -62 162 -10 q 162 7 150 27 q 113 49 113 83 q 113 109 133 125 q 152 142 181 142 q 211 142 231 118 q 251 95 251 64 q 251 0 216 -54 q 180 -107 89 -164 z"},"J":{"x_min":0,"x_max":477,"ha":477,"o":"m -6 143 l 79 143 q 79 78 145 78 q 208 78 241 105 q 273 131 296 263 l 376 715 l 474 715 l 395 267 q 368 113 314 52 q 260 -10 130 -10 q 67 -10 30 25 q -8 59 -8 120 q -8 131 -6 143 z"},"V":{"x_min":0,"x_max":587,"ha":587,"o":"m 275 -10 l 226 -10 l 87 715 l 194 715 l 285 193 l 551 715 l 662 715 z"},"\"":{"x_min":0,"x_max":325,"ha":325,"o":"m 159 530 l 94 530 l 115 716 l 205 716 z m 320 530 l 255 530 l 276 716 l 366 716 z"},"7":{"x_min":0,"x_max":524,"ha":524,"o":"m 167 0 l 49 0 q 138 184 432 625 l 90 625 l 106 718 l 573 718 l 573 680 q 320 324 167 0 z"},"S":{"x_min":0,"x_max":481,"ha":481,"o":"m 42 23 l 72 117 q 93 100 135 88 q 176 77 215 77 q 273 77 308 105 q 343 133 343 183 q 343 225 317 256 q 290 288 226 334 q 162 381 132 421 q 103 461 103 521 q 103 618 164 673 q 226 728 323 728 q 433 728 469 708 l 441 614 q 427 625 395 635 q 363 645 335 645 q 272 645 236 616 q 200 588 200 535 q 200 512 212 491 q 223 470 243 453 q 262 437 323 391 q 384 346 412 299 q 441 251 441 189 q 441 92 376 40 q 311 -12 204 -12 q 166 -12 118 -1 q 70 9 42 23 z"},"}":{"x_min":0,"x_max":367,"ha":367,"o":"m -64 -205 l -52 -137 q 60 -137 98 -99 q 137 -62 137 18 q 137 34 134 67 q 131 100 131 116 q 131 225 266 277 q 179 333 179 397 q 179 432 210 498 q 242 565 242 604 q 242 668 175 668 l 90 668 l 101 733 l 173 733 q 242 733 291 702 q 339 670 339 615 q 339 579 303 501 q 266 424 266 383 q 266 303 351 296 l 344 255 q 219 247 219 104 q 219 83 223 44 q 226 5 226 -14 q 226 -103 165 -154 q 104 -205 4 -205 z"},"Z":{"x_min":0,"x_max":550,"ha":550,"o":"m 39 0 l 39 24 l 438 627 l 135 627 l 150 715 l 578 715 l 578 691 l 193 88 l 493 88 l 477 0 z"},"x":{"x_min":0,"x_max":501,"ha":501,"o":"m 342 0 l 250 184 l 106 0 l -7 0 l 208 272 l 77 523 l 186 523 l 272 341 l 405 523 l 527 523 l 319 264 l 463 0 z"},")":{"x_min":0,"x_max":367,"ha":367,"o":"m 12 -209 l 12 -158 q 99 -90 156 104 q 212 298 212 464 q 212 595 169 680 l 169 720 q 236 691 274 587 q 313 483 313 371 q 313 207 228 40 q 143 -127 12 -209 z"},"&":{"x_min":0,"x_max":706,"ha":706,"o":"m 425 25 q 348 -10 258 -10 q 172 -10 121 36 q 69 82 69 160 q 69 307 187 405 q 140 461 140 516 q 140 615 206 672 q 272 728 382 728 q 467 728 504 705 l 478 614 q 434 655 384 655 q 313 655 272 618 q 231 581 231 515 q 231 465 271 430 l 453 430 l 469 520 l 565 534 l 545 429 l 667 429 l 653 351 l 532 351 l 513 258 q 505 221 501 190 q 498 160 498 136 q 498 73 554 73 q 592 73 626 99 l 626 10 q 588 -10 517 -10 q 460 -10 425 25 z m 439 351 l 245 351 q 169 272 169 181 q 169 130 204 102 q 238 73 296 73 q 362 73 399 97 l 399 107 q 399 127 404 153 z"},"_":{"x_min":0,"x_max":524,"ha":524,"o":"m -4 -124 l -4 -61 l 526 -61 l 526 -124 z"},"v":{"x_min":0,"x_max":490,"ha":490,"o":"m 225 -10 l 200 -10 l 48 524 l 145 524 l 239 165 l 438 524 l 544 524 z"},"O":{"x_min":0,"x_max":674,"ha":674,"o":"m 56 263 q 56 451 156 590 q 257 728 417 728 q 541 728 606 661 q 670 593 670 467 q 670 258 569 123 q 467 -12 287 -12 q 179 -12 117 64 q 56 141 56 263 z m 160 276 q 160 184 197 130 q 233 76 302 76 q 424 76 495 188 q 567 301 567 457 q 567 641 409 641 q 299 641 229 521 q 160 402 160 276 z"},"(":{"x_min":0,"x_max":367,"ha":367,"o":"m 376 720 l 376 680 q 283 577 234 409 q 185 242 185 42 q 185 -78 225 -158 l 225 -209 q 163 -162 124 -67 q 85 27 85 135 q 85 299 171 477 q 257 656 376 720 z"},"C":{"x_min":0,"x_max":598,"ha":598,"o":"m 588 705 l 561 609 q 520 641 445 641 q 330 641 251 526 q 172 411 172 277 q 172 76 340 76 q 426 76 508 146 l 500 43 q 440 -12 314 -12 q 197 -12 133 60 q 69 132 69 259 q 69 456 176 592 q 282 728 451 728 q 536 728 588 705 z"},"W":{"x_min":0,"x_max":852,"ha":852,"o":"m 580 -10 l 549 -10 l 466 473 l 219 -10 l 188 -10 l 91 715 l 192 715 l 250 232 l 493 715 l 527 715 l 599 234 l 824 715 l 930 715 z"},"A":{"x_min":0,"x_max":611,"ha":611,"o":"m 457 0 l 435 151 l 178 151 l 94 0 l -16 0 l 403 725 l 429 725 l 570 0 z m 380 528 l 217 223 l 424 223 z"},"f":{"x_min":0,"x_max":401,"ha":401,"o":"m 439 650 q 402 664 381 664 q 293 664 269 523 l 390 523 l 382 459 l 259 459 l 177 -34 q 165 -104 113 -147 q 62 -190 -12 -199 l -21 -142 q 9 -136 40 -103 q 70 -69 77 -34 l 163 459 l 89 459 l 100 523 l 172 523 q 215 737 387 737 q 428 737 457 723 z"},"Q":{"x_min":0,"x_max":674,"ha":674,"o":"m 448 21 q 464 -29 512 -57 q 560 -84 626 -84 q 687 -84 738 -48 l 781 -122 q 764 -144 714 -163 q 663 -182 608 -182 q 510 -182 443 -133 q 376 -84 358 -1 q 321 -12 280 -12 q 168 -12 108 61 q 49 134 49 263 q 49 451 149 590 q 250 728 410 728 q 533 728 598 661 q 664 593 664 467 q 664 320 604 190 q 545 60 448 21 z m 153 276 q 153 184 190 130 q 227 76 295 76 q 417 76 489 189 q 560 303 560 457 q 560 641 402 641 q 295 641 224 524 q 153 407 153 276 z"},"w":{"x_min":0,"x_max":744,"ha":744,"o":"m 509 -10 l 484 -10 l 387 331 l 178 -10 l 154 -10 l 56 524 l 150 524 l 208 192 l 402 524 l 427 524 l 521 189 l 685 524 l 781 524 q 617 204 509 -10 z"},"-":{"x_min":0,"x_max":367,"ha":367,"o":"m 70 247 l 85 333 l 294 333 l 279 247 z"},"E":{"x_min":0,"x_max":536,"ha":536,"o":"m 236 627 l 201 429 l 438 429 l 423 346 l 187 346 l 141 88 l 465 88 l 450 0 l 23 0 l 149 715 l 582 715 l 565 627 z"},"s":{"x_min":0,"x_max":405,"ha":405,"o":"m 4 31 l 53 119 q 72 100 107 84 q 143 68 168 68 q 212 68 240 92 q 269 115 269 155 q 269 176 254 192 q 239 208 202 229 l 133 267 q 102 285 86 313 q 70 340 70 372 q 70 444 126 489 q 183 533 266 533 q 323 533 403 497 l 362 411 q 314 455 259 455 q 222 455 196 436 q 169 417 169 386 q 169 364 184 348 q 199 332 236 312 l 305 274 q 336 257 352 230 q 368 204 368 172 q 368 88 307 39 q 246 -10 152 -10 q 70 -10 4 31 z"},">":{"x_min":0,"x_max":524,"ha":524,"o":"m 485 281 l 124 106 l 124 185 l 403 311 l 124 436 l 124 514 l 485 341 z"},"l":{"x_min":0,"x_max":320,"ha":320,"o":"m 239 59 l 228 -10 q 71 -10 71 106 q 71 142 96 263 l 189 737 l 286 737 l 197 292 q 169 153 169 118 q 169 59 239 59 z"},"8":{"x_min":0,"x_max":524,"ha":524,"o":"m 210 398 q 176 418 154 458 q 132 499 132 541 q 132 625 192 677 q 251 728 349 728 q 422 728 474 688 q 525 647 525 583 q 525 521 486 464 q 447 408 390 388 q 435 363 462 319 q 489 275 489 224 q 489 104 428 47 q 368 -10 236 -10 q 151 -10 96 38 q 41 85 41 161 q 41 243 85 304 q 129 365 210 398 z m 320 437 q 359 447 392 487 q 424 527 424 567 q 424 601 397 623 q 370 645 334 645 q 287 645 259 615 q 231 584 231 542 q 231 510 257 481 q 283 452 320 437 z m 290 354 q 237 342 189 289 q 141 236 141 178 q 141 131 172 102 q 203 73 246 73 q 390 73 390 216 q 390 257 362 294 q 334 332 290 354 z"},"\\":{"x_min":0,"x_max":355,"ha":355,"o":"m 239 0 l 90 718 l 160 718 l 309 0 z"},"e":{"x_min":0,"x_max":537,"ha":537,"o":"m 152 247 q 147 224 147 202 q 147 138 184 103 q 220 68 285 68 q 342 68 401 111 l 391 16 q 313 -10 253 -10 q 51 -10 51 217 q 51 350 136 441 q 221 533 350 533 q 427 533 474 500 q 520 466 520 405 q 520 319 448 270 q 375 221 271 221 q 200 221 152 247 z m 168 314 q 205 298 255 298 q 332 298 380 323 q 428 347 428 395 q 428 455 345 455 q 219 455 168 314 z"},"b":{"x_min":0,"x_max":557,"ha":557,"o":"m 124 50 l 74 -10 l 13 -10 q 45 82 67 203 l 161 737 l 250 737 l 207 468 q 244 533 337 533 q 421 533 476 470 q 531 408 531 303 q 531 180 446 85 q 360 -10 234 -10 q 155 -10 124 50 z m 194 383 l 145 128 q 144 123 156 106 q 167 90 189 78 q 210 66 231 66 q 314 66 373 140 q 431 213 431 295 q 431 455 290 455 q 234 455 194 383 z"},"%":{"x_min":0,"x_max":600,"ha":600,"o":"m 70 -10 l 8 -10 l 569 728 l 630 728 z m 60 511 q 60 597 101 663 q 142 728 234 728 q 340 728 340 608 q 340 520 295 456 q 250 393 170 393 q 60 393 60 511 z m 122 520 q 122 442 175 442 q 230 442 255 498 q 280 553 280 608 q 280 678 224 678 q 179 678 150 631 q 122 583 122 520 z m 318 110 q 318 197 359 262 q 400 327 492 327 q 599 327 599 208 q 599 122 554 57 q 510 -8 428 -8 q 318 -8 318 110 z m 380 119 q 380 42 433 42 q 488 42 513 97 q 538 152 538 208 q 538 277 481 277 q 436 277 408 228 q 380 179 380 119 z"},"m":{"x_min":0,"x_max":830,"ha":830,"o":"m 634 0 l 693 331 q 696 351 696 369 q 696 455 610 455 q 578 455 546 435 q 513 415 497 387 l 428 0 l 333 0 l 399 372 q 400 380 400 387 q 400 455 308 455 q 280 455 246 433 q 212 412 194 386 l 126 0 l 31 0 l 99 381 q 102 398 102 427 q 102 481 92 515 l 182 532 q 191 495 192 464 q 212 496 257 514 q 302 533 351 533 q 463 533 496 463 q 517 493 563 513 q 609 533 654 533 q 796 533 796 397 q 796 375 792 350 l 729 0 z"},"#":{"x_min":0,"x_max":524,"ha":524,"o":"m 458 462 l 409 271 l 488 271 l 488 208 l 393 208 l 333 -10 l 271 -10 l 331 208 l 186 208 l 125 -10 l 62 -10 l 122 208 l 46 208 l 46 271 l 138 271 l 187 462 l 103 462 l 103 525 l 203 525 l 252 726 l 316 726 l 266 525 l 411 525 l 461 726 l 523 726 l 473 525 l 559 525 l 559 462 z m 250 462 l 202 271 l 347 271 l 396 462 z"},",":{"x_min":0,"x_max":367,"ha":367,"o":"m 89 -164 l 67 -126 q 162 -62 162 -10 q 162 7 150 27 q 113 49 113 83 q 113 109 133 125 q 152 142 181 142 q 211 142 231 118 q 251 95 251 64 q 251 0 216 -54 q 180 -107 89 -164 z"},"n":{"x_min":0,"x_max":546,"ha":546,"o":"m 355 0 l 410 304 q 417 345 417 372 q 417 455 331 455 q 298 455 260 435 q 222 416 200 389 l 132 0 l 38 0 l 108 396 q 111 410 111 429 q 111 479 101 515 l 190 533 q 204 461 203 455 q 263 533 375 533 q 517 533 517 388 q 517 359 510 324 l 454 0 z"},"h":{"x_min":0,"x_max":557,"ha":557,"o":"m 359 0 l 417 329 q 421 348 421 364 q 421 455 333 455 q 299 455 262 435 q 225 415 202 389 l 133 0 l 38 0 l 166 737 l 258 737 l 215 465 q 239 494 283 513 q 328 533 372 533 q 441 533 480 493 q 518 454 518 382 q 518 357 513 329 l 455 0 z"},"z":{"x_min":0,"x_max":475,"ha":475,"o":"m 164 83 l 424 83 l 410 0 l 4 0 l 4 24 l 325 440 l 57 440 l 71 523 l 479 523 l 479 497 z"},"B":{"x_min":0,"x_max":566,"ha":566,"o":"m 42 0 l 169 715 q 242 726 303 726 q 556 726 556 558 q 556 502 516 455 q 476 408 422 401 q 541 379 541 237 q 541 116 456 55 q 372 -6 187 -6 q 135 -6 42 0 z m 256 637 l 224 439 q 266 436 292 436 q 456 436 456 561 q 456 642 329 642 q 305 642 256 637 z m 207 357 l 158 83 q 185 78 217 78 q 314 78 377 117 q 440 156 440 226 q 440 361 269 361 q 240 361 207 357 z"},"K":{"x_min":0,"x_max":576,"ha":576,"o":"m 424 0 l 286 329 l 167 194 l 132 0 l 34 0 l 160 715 l 258 715 l 194 345 l 519 715 l 633 715 l 364 405 l 537 0 z"},"R":{"x_min":0,"x_max":582,"ha":582,"o":"m 407 0 l 295 307 q 257 307 192 312 l 137 0 l 35 0 l 161 715 q 181 716 240 719 q 298 723 336 723 q 449 723 510 682 q 572 642 572 566 q 572 477 519 409 q 466 342 386 324 l 519 0 z m 248 627 l 207 395 q 243 390 274 390 q 361 390 414 426 q 467 462 467 525 q 467 583 430 608 q 393 632 306 632 q 288 632 248 627 z"},"T":{"x_min":0,"x_max":581,"ha":581,"o":"m 404 627 l 294 0 l 194 0 l 304 627 l 77 627 l 92 715 l 655 715 l 640 627 z"},"P":{"x_min":0,"x_max":543,"ha":543,"o":"m 177 275 l 128 0 l 26 0 l 157 715 q 248 725 300 725 q 570 725 570 517 q 570 397 487 331 q 404 264 274 264 q 223 264 177 275 z m 239 627 l 192 363 q 219 350 271 350 q 358 350 412 391 q 466 432 466 507 q 466 639 324 639 q 284 639 239 627 z"},"|":{"x_min":0,"x_max":524,"ha":524,"o":"m 226 -135 l 226 686 l 297 686 l 297 -135 z"},"t":{"x_min":0,"x_max":420,"ha":420,"o":"m 157 450 l 96 450 l 112 523 l 172 523 l 194 632 l 300 672 l 265 523 l 409 523 l 393 450 l 250 450 l 195 190 q 188 160 188 143 q 188 68 263 68 q 299 68 340 86 l 337 5 q 297 -10 208 -10 q 152 -10 121 25 q 90 59 90 119 q 90 133 94 153 z"},"M":{"x_min":0,"x_max":761,"ha":761,"o":"m 609 0 l 599 442 l 361 -10 l 337 -10 l 260 446 l 95 0 l 2 0 l 257 715 l 306 715 l 384 213 l 636 715 l 687 715 l 707 0 z"},"g":{"x_min":0,"x_max":502,"ha":502,"o":"m -6 -146 l 38 -78 q 127 -123 186 -123 q 250 -123 293 -99 q 336 -75 336 -32 q 336 -11 322 3 q 307 17 272 23 l 187 38 q 134 51 134 91 q 134 123 218 156 l 201 155 q 144 155 101 198 q 58 241 58 301 q 58 403 124 468 q 189 533 292 533 q 366 533 408 498 l 452 547 l 503 495 l 455 444 q 469 424 469 381 q 469 297 427 237 q 384 177 316 153 q 247 129 247 108 q 247 91 266 91 q 272 91 286 93 q 299 95 306 95 q 428 95 428 -15 q 428 -102 351 -153 q 274 -205 168 -205 q 61 -205 -6 -146 z m 285 458 q 229 458 191 414 q 152 371 152 312 q 152 205 233 205 q 288 205 330 259 q 372 312 372 372 q 372 412 348 435 q 325 458 285 458 z"},"j":{"x_min":0,"x_max":367,"ha":367,"o":"m 284 728 q 311 728 330 709 q 349 690 349 663 q 349 636 330 617 q 311 599 284 599 q 257 599 238 617 q 219 636 219 663 q 219 690 238 709 q 257 728 284 728 z m -68 -203 l -64 -121 q 104 -121 128 2 l 212 445 l 143 445 l 160 523 l 320 523 l 226 8 q 206 -104 135 -153 q 65 -203 -68 -203 z"},"i":{"x_min":0,"x_max":307,"ha":307,"o":"m 217 728 q 244 728 263 709 q 282 690 282 663 q 282 636 263 617 q 244 599 217 599 q 190 599 171 617 q 152 636 152 663 q 152 690 171 709 q 190 728 217 728 z m 67 0 l 146 445 l 77 445 l 94 521 l 254 521 l 162 0 z"},"y":{"x_min":0,"x_max":493,"ha":493,"o":"m 15 -205 l 15 -112 q 106 -112 144 -84 q 182 -57 199 -2 q 130 -2 107 133 l 42 523 l 143 523 l 201 144 q 209 87 241 87 l 429 523 l 535 523 l 272 -62 q 239 -137 184 -171 q 129 -205 15 -205 z"},"@":{"x_min":0,"x_max":771,"ha":771,"o":"m 454 173 q 441 152 407 135 q 374 119 344 119 q 291 119 259 148 q 227 177 227 229 q 227 319 290 389 q 354 459 441 459 q 471 459 490 454 q 508 450 560 427 q 520 250 520 226 q 520 176 560 176 q 618 176 650 235 q 682 295 682 376 q 682 472 622 530 q 561 587 464 587 q 323 587 227 477 q 130 367 130 218 q 130 113 192 53 q 254 -6 360 -6 q 473 -6 552 57 l 599 21 q 497 -65 349 -65 q 216 -65 138 7 q 60 80 60 208 q 60 387 180 517 q 301 647 475 647 q 602 647 677 579 q 753 512 753 393 q 753 287 697 205 q 642 124 552 124 q 522 124 493 137 q 463 151 454 173 z m 486 391 q 466 413 438 413 q 382 413 344 355 q 305 297 305 235 q 305 173 360 173 q 395 173 423 198 q 452 223 459 259 z"},".":{"x_min":0,"x_max":367,"ha":367,"o":"m 154 137 q 184 137 206 116 q 227 94 227 64 q 227 34 206 12 q 184 -10 154 -10 q 124 -10 102 12 q 81 34 81 64 q 81 94 102 116 q 124 137 154 137 z"},"p":{"x_min":0,"x_max":557,"ha":557,"o":"m 126 26 l 85 -208 l -7 -208 l 95 367 q 102 404 102 440 q 102 478 95 513 l 188 530 q 190 524 197 463 q 220 492 263 511 q 306 530 343 530 q 440 530 489 482 q 538 434 538 336 q 538 188 455 88 q 373 -12 239 -12 q 210 -12 173 -1 q 136 10 126 26 z m 140 103 q 149 87 176 77 q 203 66 226 66 q 328 66 384 135 q 439 204 439 324 q 439 388 406 420 q 374 452 309 452 q 281 452 243 432 q 206 413 190 391 z"},"X":{"x_min":0,"x_max":557,"ha":557,"o":"m 399 0 l 280 276 l 77 0 l -36 0 l 240 376 l 107 716 l 208 715 l 306 454 l 510 715 l 623 715 l 346 364 l 509 0 z"},"*":{"x_min":0,"x_max":367,"ha":367,"o":"m 349 550 l 264 549 l 341 498 l 364 467 l 305 417 l 278 451 l 238 528 l 194 449 l 173 418 l 109 467 l 133 501 l 210 542 l 125 555 l 81 570 l 116 644 l 163 625 l 224 579 l 193 679 l 193 718 l 279 717 l 279 681 l 250 578 l 327 630 l 363 643 l 391 564 z"},"Y":{"x_min":0,"x_max":570,"ha":570,"o":"m 349 320 l 292 0 l 194 0 l 251 320 l 89 715 l 191 715 l 312 410 l 538 715 l 648 715 z"},"c":{"x_min":0,"x_max":460,"ha":460,"o":"m 453 506 l 436 427 q 401 455 342 455 q 252 455 197 384 q 141 312 141 209 q 141 146 177 108 q 213 70 259 70 q 330 70 395 113 l 384 19 q 320 -10 244 -10 q 147 -10 96 46 q 44 101 44 193 q 44 342 126 438 q 208 533 335 533 q 410 533 453 506 z"},"!":{"x_min":0,"x_max":367,"ha":367,"o":"m 171 187 l 137 187 q 140 364 146 426 q 151 487 159 528 l 194 728 l 305 728 l 270 528 q 254 435 171 187 z m 134 128 q 163 128 183 108 q 203 88 203 59 q 203 30 183 10 q 163 -10 134 -10 q 105 -10 85 10 q 64 30 64 59 q 64 88 85 108 q 105 128 134 128 z"},"/":{"x_min":0,"x_max":524,"ha":524,"o":"m 171 0 l 92 0 l 352 718 l 429 718 z"},"[":{"x_min":0,"x_max":367,"ha":367,"o":"m 11 -205 l 177 737 l 408 737 l 393 654 l 265 654 l 128 -122 l 256 -122 l 242 -205 z"},"6":{"x_min":0,"x_max":524,"ha":524,"o":"m 429 728 l 467 676 q 416 656 320 558 q 224 460 206 409 q 253 448 325 448 q 406 448 453 402 q 500 357 500 276 q 500 160 427 74 q 354 -12 247 -12 q 56 -12 56 191 q 56 301 97 397 q 138 493 233 598 q 329 703 429 728 z m 151 177 q 151 71 254 71 q 317 71 357 126 q 397 182 397 256 q 397 306 372 335 q 348 365 304 365 q 232 365 191 313 q 151 261 151 177 z"},"r":{"x_min":0,"x_max":417,"ha":417,"o":"m 408 431 q 378 455 339 455 q 290 455 245 409 q 200 363 189 300 l 136 0 l 43 0 l 135 523 l 228 523 l 213 439 q 281 533 381 533 q 398 533 434 526 z"},"2":{"x_min":0,"x_max":524,"ha":524,"o":"m 31 0 l 31 44 l 267 346 q 336 436 360 479 q 384 522 384 563 q 384 601 353 622 q 322 644 275 644 q 208 644 164 579 l 96 624 q 142 728 287 728 q 382 728 434 685 q 487 643 487 569 q 487 521 460 468 q 433 415 355 314 l 180 88 l 446 88 l 430 0 z"},"{":{"x_min":0,"x_max":367,"ha":367,"o":"m 195 -205 q 123 -205 74 -173 q 25 -141 25 -83 q 25 -39 64 46 q 103 130 103 175 q 103 250 17 255 l 24 296 q 82 300 115 341 q 149 381 149 445 q 149 464 145 503 q 140 542 140 561 q 140 639 203 686 q 266 733 355 733 l 428 733 l 417 668 l 331 668 q 284 668 258 635 q 232 602 232 544 q 232 528 236 497 q 240 465 240 449 q 240 398 210 357 q 180 317 103 277 q 192 237 192 168 q 192 137 159 63 q 126 -11 126 -53 q 126 -84 141 -104 q 156 -123 184 -130 q 212 -137 274 -137 l 263 -205 z"},"9":{"x_min":0,"x_max":524,"ha":524,"o":"m 156 -12 l 118 40 q 169 60 266 158 q 362 255 379 307 q 333 268 260 268 q 186 268 136 319 q 86 371 86 449 q 86 575 154 651 q 222 728 339 728 q 427 728 479 672 q 530 616 530 524 q 530 335 400 175 q 271 14 156 -12 z m 434 539 q 434 586 407 615 q 380 645 332 645 q 265 645 227 593 q 188 542 188 459 q 188 410 213 381 q 238 351 281 351 q 353 351 394 403 q 434 454 434 539 z"}," ":{"x_min":0,"x_max":301,"ha":301,"o":""},"I":{"x_min":0,"x_max":278,"ha":278,"o":"m 37 0 l 163 715 l 263 715 l 136 0 z"},"H":{"x_min":0,"x_max":654,"ha":654,"o":"m 446 0 l 507 346 l 194 346 l 133 0 l 33 0 l 159 715 l 260 715 l 209 429 l 521 429 l 572 715 l 672 715 l 545 0 z"},"4":{"x_min":0,"x_max":524,"ha":524,"o":"m 431 195 l 396 0 l 299 0 l 333 195 l 12 195 l 22 250 l 489 718 l 523 718 l 444 270 l 516 270 l 503 195 z m 390 520 l 141 270 l 346 270 z"},"~":{"x_min":0,"x_max":524,"ha":524,"o":"m 62 271 q 71 317 106 350 q 141 382 183 382 q 238 382 287 349 q 335 317 352 317 q 379 317 398 325 q 416 334 438 367 l 462 359 q 450 310 417 276 q 385 243 344 243 q 297 243 250 272 q 204 301 177 301 q 110 301 82 262 z"},"D":{"x_min":0,"x_max":613,"ha":613,"o":"m 189 0 l 33 0 l 159 715 q 219 727 280 727 q 436 727 522 654 q 609 581 609 438 q 609 230 490 115 q 371 0 189 0 z m 240 631 l 149 92 q 178 88 205 88 q 340 88 422 188 q 504 289 504 444 q 504 533 445 586 q 386 639 300 639 q 269 639 240 631 z"},"^":{"x_min":0,"x_max":524,"ha":524,"o":"m 442 443 l 323 662 l 202 441 l 143 441 l 298 718 l 350 718 l 504 443 z"},"0":{"x_min":0,"x_max":524,"ha":524,"o":"m 33 203 q 33 438 117 583 q 201 728 353 728 q 533 728 533 523 q 533 273 451 132 q 370 -10 216 -10 q 128 -10 81 46 q 33 103 33 203 z m 131 221 q 131 73 224 73 q 325 73 380 200 q 435 328 435 514 q 435 645 336 645 q 244 645 187 510 q 131 375 131 221 z"},"F":{"x_min":0,"x_max":525,"ha":525,"o":"m 240 627 l 205 429 l 457 429 l 442 346 l 190 346 l 129 0 l 27 0 l 155 715 l 600 715 l 584 627 z"},"`":{"x_min":0,"x_max":524,"ha":524,"o":"m 323 598 l 247 761 l 343 761 l 372 598 z"},"k":{"x_min":0,"x_max":504,"ha":504,"o":"m 215 231 l 179 199 l 145 0 l 52 0 l 175 737 l 266 737 l 199 309 q 382 480 425 540 l 487 484 q 409 396 288 282 l 485 0 l 375 0 z"},"u":{"x_min":0,"x_max":557,"ha":557,"o":"m 210 523 l 149 189 q 146 168 146 150 q 146 68 230 68 q 283 68 331 107 q 379 146 389 201 l 448 523 l 546 523 l 450 0 l 353 0 l 366 74 q 312 -10 177 -10 q 116 -10 82 26 q 47 62 47 129 q 47 152 52 180 l 113 523 z"},"]":{"x_min":0,"x_max":367,"ha":367,"o":"m 228 -205 l -3 -205 l 11 -122 l 140 -122 l 276 654 l 148 654 l 163 737 l 394 737 z"},"U":{"x_min":0,"x_max":648,"ha":648,"o":"m 158 715 l 261 715 l 173 226 q 170 209 170 195 q 170 140 203 108 q 237 76 294 76 q 366 76 413 116 q 459 157 472 228 l 560 715 l 660 715 l 572 218 q 553 109 475 49 q 396 -12 280 -12 q 181 -12 123 36 q 65 84 65 164 q 65 189 70 218 z"},"o":{"x_min":0,"x_max":537,"ha":537,"o":"m 36 192 q 36 333 118 433 q 200 533 326 533 q 421 533 472 481 q 522 430 522 335 q 522 260 492 179 q 462 98 394 44 q 326 -10 230 -10 q 136 -10 86 43 q 36 96 36 192 z m 133 198 q 133 66 244 66 q 327 66 375 146 q 424 226 424 331 q 424 457 313 457 q 257 457 214 417 q 171 377 152 314 q 133 252 133 198 z"},"N":{"x_min":0,"x_max":638,"ha":638,"o":"m 490 -10 l 210 498 l 126 0 l 29 0 l 155 715 l 194 715 l 468 228 l 550 715 l 647 715 l 519 -10 z"},"+":{"x_min":0,"x_max":524,"ha":524,"o":"m 298 345 l 469 345 l 469 276 l 298 276 l 298 107 l 229 107 l 229 276 l 60 276 l 60 345 l 229 345 l 229 512 l 298 512 z"},"G":{"x_min":0,"x_max":676,"ha":676,"o":"m 623 687 l 594 593 q 531 640 458 640 q 327 640 243 538 q 159 437 159 282 q 159 76 354 76 q 432 76 488 123 l 518 290 l 419 290 l 434 373 l 630 373 l 575 62 q 474 -12 318 -12 q 55 -12 55 263 q 55 469 171 598 q 288 728 477 728 q 582 728 623 687 z"},"q":{"x_min":0,"x_max":557,"ha":557,"o":"m 328 -205 l 369 31 q 322 -10 226 -10 q 145 -10 92 48 q 39 106 39 186 q 39 331 124 432 q 209 533 342 533 q 411 533 460 483 l 485 523 l 562 523 q 533 426 522 368 l 420 -205 z m 437 415 q 404 455 344 455 q 252 455 195 383 q 138 311 138 208 q 138 142 173 105 q 208 68 272 68 q 338 68 382 103 z"},"d":{"x_min":0,"x_max":557,"ha":557,"o":"m 364 0 l 375 60 q 319 -9 221 -9 q 136 -9 88 43 q 40 95 40 184 q 40 337 122 434 q 204 532 332 532 q 406 532 446 470 l 495 737 l 583 737 l 456 0 z m 429 378 q 430 382 416 405 q 402 428 382 441 q 362 454 340 454 q 254 454 197 384 q 140 313 140 204 q 140 66 254 66 q 305 66 350 116 q 394 167 407 247 z"},"1":{"x_min":0,"x_max":524,"ha":524,"o":"m 217 0 l 312 538 l 167 464 l 181 558 q 351 636 412 718 l 441 718 l 314 0 z"},"5":{"x_min":0,"x_max":524,"ha":524,"o":"m 152 369 l 102 369 l 163 718 l 519 718 l 504 635 l 241 635 l 210 461 q 250 488 306 488 q 381 488 429 440 q 477 393 477 318 q 477 -10 184 -10 q 90 -10 39 41 l 79 127 q 136 73 198 73 q 281 73 326 131 q 371 189 371 285 q 371 338 339 372 q 308 405 258 405 q 191 405 152 369 z"}}}
